<svg width="24" height="24" viewBox="0 0 24 24" fill="none" xmlns="http://www.w3.org/2000/svg">
<path d="M15.4748 12.89L16.9898 21.416C17.0068 21.5164 16.9927 21.6196 16.9494 21.7118C16.9062 21.8039 16.8358 21.8807 16.7477 21.9318C16.6597 21.9829 16.5581 22.0059 16.4566 21.9977C16.3551 21.9895 16.2585 21.9506 16.1798 21.886L12.5998 19.199C12.427 19.0699 12.217 19.0001 12.0013 19.0001C11.7856 19.0001 11.5756 19.0699 11.4028 19.199L7.8168 21.885C7.73812 21.9494 7.64166 21.9884 7.54029 21.9966C7.43893 22.0048 7.33747 21.9818 7.24946 21.9309C7.16145 21.8799 7.09107 21.8033 7.04772 21.7113C7.00436 21.6194 6.99009 21.5163 7.0068 21.416L8.5208 12.89" stroke="white" stroke-width="2" stroke-linecap="round" stroke-linejoin="round"/>
<path d="M12 14C15.3137 14 18 11.3137 18 8C18 4.68629 15.3137 2 12 2C8.68629 2 6 4.68629 6 8C6 11.3137 8.68629 14 12 14Z" stroke="white" stroke-width="2" stroke-linecap="round" stroke-linejoin="round"/>
</svg>
