<svg width="15" height="12" viewBox="0 0 15 12" fill="none" xmlns="http://www.w3.org/2000/svg">
<path d="M11.625 8.74219C12.0468 9.77344 13.0078 10.5 14.4375 10.5C14.7421 10.5 15 10.7578 15 11.0625V11.4375C15 11.7656 14.7421 12 14.4375 12C12.9843 12 11.9062 11.5312 11.0625 10.6172C10.7343 11.4375 9.91401 12 8.99995 12H5.99995C5.06245 12 4.24214 11.4375 3.91401 10.6172C3.07026 11.5312 1.99214 12 0.562451 12C0.234326 12 -4.91142e-05 11.7656 -4.91142e-05 11.4375V11.0625C-4.91142e-05 10.7578 0.234326 10.5 0.562451 10.5C1.99214 10.5 2.92964 9.77344 3.35151 8.74219L1.71089 7.10156C1.31245 6.70312 1.47651 6.02344 2.01558 5.85938L2.99995 5.55469V2.25C2.99995 1.85156 3.32808 1.5 3.74995 1.5H5.24995V0.5625C5.24995 0.257812 5.48433 0 5.81245 0H9.18745C9.49214 0 9.74995 0.257812 9.74995 0.5625V1.5H11.25C11.6484 1.5 12 1.85156 12 2.25V5.55469L12.9609 5.85938C13.5 6.02344 13.664 6.70312 13.2656 7.10156L11.625 8.74219ZM4.49995 3V5.0625L7.26558 4.17188C7.33589 4.14844 7.4062 4.14844 7.49995 4.14844C7.57026 4.14844 7.64058 4.14844 7.71089 4.17188L10.5 5.0625V3H4.49995Z" fill="white"/>
</svg>
